<?xml version="1.0" encoding="UTF-8"?>
<svg id="Layer_1" data-name="Layer 1" xmlns="https://www.w3.org/2000/svg" viewBox="0 0 245.15 245.15">
  <defs>
    <style>
      .cls-1 {
        fill: none;
        stroke: #231f20;
        stroke-miterlimit: 10;
      }

      .cls-2 {
        fill: #231f20;
        stroke-width: 0px;
      }
    </style>
  </defs>
  <g>
    <path class="cls-2" d="m185.83,48.67l11.01-11.57c5.14,4.89,7.33,7.49,3.11,11.93-6.05,6.36-7.07,6.35-14.12-.35Zm10.55-4.38c-1.85-1.76-2.74-1.47-4.67.56-2.05,2.16-2.14,2.9-.69,4.28,2.83,2.69,3.79,2.5,5.5.71,2.05-2.16,2.32-3.21-.14-5.55Z"/>
    <path class="cls-2" d="m197.93,56.79c-.56-.67-1.06-.49-3.27,1.35l-.98-1.17,12.49-10.39c6.19,7.43,6.15,8.25,1.12,12.44-2.58,2.14-4.62,2.61-6.28,1.16l-.92,5.54-2.56-3.07c.86-3.93,1.03-5.09.39-5.86Zm7.21-2.91c-1.89-2.27-2.82-1.78-4.01-.79-1.17.98-1.66,2.07.03,4.1,1.7,2.04,2.88,2.13,4.22,1.01,1.36-1.14,1.66-2.03-.24-4.32Z"/>
    <path class="cls-2" d="m206.16,67.53c-1.49-2.25-2.27-2.12-4.02-1.51l-1.32-2,14.54-6.17,3.02,4.57-11.81,11.62-.91-1.38c1.83-1.72,2.3-2.42.5-5.13Zm5.61-4.58c-.33-.5-1.02-1.18-3.45-.32-2,.69-2.36,1.56-1.16,3.37,1.27,1.92,2.23,2.33,3.72.51,1.58-1.92,1.23-3.03.89-3.55Z"/>
    <path class="cls-2" d="m209.11,78.5c-1.77-3.45-1.31-5.23,5.68-8.81,3.96-2.03,6.69-2.19,8.68,1.7,1.11,2.16,1.45,3.53,1.45,3.53l-4.92,2.52-1.72-3.36c-1.43-2.78-2.33-3.02-5.18-1.56-1.82.94-2.46,2.11-1.5,3.97.88,1.71,1.79,1.95,5.37.11l1.33,2.6-6.72,3.45s-1.28-1.84-2.47-4.16Z"/>
    <path class="cls-2" d="m222.19,97c-.25-.84-1.42-1.27-6.39-2.01l-.34-1.13c3.75-3.18,4.45-3.73,4.17-4.64-.34-1.15-.92-1.16-5.81.3l-.48-1.61,15.33-4.59.78,2.61c-6.7,5.34-7.22,6.77-7,7.51.24.81,1.4,1.82,10.58,2.32l.39,1.29-16.67,4.99-.52-1.75c5.68-1.69,6.22-2.43,5.95-3.31Z"/>
    <path class="cls-2" d="m232.74,100.66l1.34,8.37-5.11.82c-1.02-6.37-1.37-6.82-2.28-6.67-1.01.16-1.33.54-.41,6.32l-1.6.26c-.85-5.31-1.22-5.73-2.33-5.55-1.06.17-1.32.74-.32,6.99l-3.23.52-1.38-8.59,15.33-2.45Z"/>
    <path class="cls-2" d="m219.78,126.47l15.91,1.44c-.64,7.07-1.32,10.4-7.42,9.85-8.74-.79-9.37-1.6-8.49-11.29Zm9.99,5.55c.23-2.54-.55-3.06-3.34-3.32-2.96-.27-3.6.13-3.78,2.12-.35,3.88.39,4.53,2.86,4.75,2.96.27,3.96-.17,4.26-3.55Z"/>
    <path class="cls-2" d="m220.91,140.99c.18-.86-.27-1.13-3.08-1.72l.31-1.49,15.9,3.35c-2,9.47-2.66,9.94-9.07,8.59-3.28-.69-4.92-2.01-4.81-4.21l-4.92,2.72.83-3.91c3.62-1.77,4.63-2.34,4.84-3.32Zm6.75,3.85c.61-2.89-.35-3.32-1.86-3.64-1.49-.32-2.65-.02-3.2,2.57-.55,2.59.11,3.58,1.83,3.94,1.74.37,2.62.04,3.24-2.87Z"/>
    <path class="cls-2" d="m217.58,154.11c.85-2.56.26-3.1-1.31-4.09l.75-2.28,13.84,7.6-1.72,5.2-16.43-2.08.52-1.57c2.48.37,3.32.31,4.34-2.78Zm7.07,1.57c.19-.57.3-1.53-1.88-2.91-1.78-1.14-2.68-.89-3.37,1.18-.72,2.18-.45,3.2,1.91,3.24,2.48.06,3.14-.91,3.34-1.5Z"/>
    <path class="cls-2" d="m210.78,163.23c1.62-3.52,3.3-4.26,10.44-.99,4.04,1.86,5.86,3.9,4.03,7.87-1.01,2.2-1.88,3.32-1.88,3.32l-5.02-2.3,1.57-3.43c1.3-2.84.93-3.7-1.98-5.03-1.86-.86-3.18-.63-4.05,1.28-.8,1.75-.43,2.61,3.23,4.29l-1.22,2.66-6.86-3.15s.66-2.15,1.74-4.51Z"/>
    <path class="cls-2" d="m204.35,184.92c.5-.71.12-1.9-2.38-6.26l.68-.96c4.81.98,5.68,1.18,6.22.41.69-.98.34-1.44-3.83-4.38l.96-1.37,13.09,9.19-1.57,2.23c-8.34-1.96-9.78-1.48-10.23-.84-.49.69-.56,2.23,4.72,9.74l-.78,1.1-14.23-9.99,1.05-1.49c4.84,3.41,5.75,3.38,6.28,2.62Z"/>
    <path class="cls-2" d="m208.02,195.44l-5.73,6.24-3.81-3.5c4.36-4.75,4.5-5.31,3.82-5.93-.76-.69-1.25-.71-5.21,3.6l-1.2-1.1c3.64-3.96,3.74-4.51,2.91-5.27-.79-.73-1.41-.58-5.68,4.08l-2.41-2.21,5.88-6.41,11.44,10.5Z"/>
    <path class="cls-2" d="m179.73,201.3l8.72,13.39c-5.95,3.87-8.98,5.4-12.32.27-4.79-7.35-4.54-8.35,3.61-13.66Zm1.83,11.28c2.14-1.39,2.06-2.33.54-4.67-1.62-2.49-2.33-2.75-4-1.66-3.27,2.13-3.31,3.11-1.96,5.19,1.62,2.49,2.58,3,5.43,1.15Z"/>
    <path class="cls-2" d="m169.03,211.18c.78-.39.72-.91-.56-3.49l1.37-.68,7.21,14.56c-8.67,4.29-9.45,4.07-12.36-1.8-1.49-3-1.47-5.1.33-6.38l-5.18-2.18,3.58-1.77c3.63,1.75,4.71,2.19,5.61,1.74Zm1.16,7.68c2.64-1.31,2.39-2.33,1.7-3.72-.68-1.37-1.62-2.1-4-.92-2.38,1.18-2.74,2.3-1.96,3.87.79,1.59,1.59,2.09,4.26.77Z"/>
    <path class="cls-2" d="m156.66,216.69c2.54-.92,2.59-1.71,2.4-3.56l2.26-.82,2.6,15.58-5.15,1.87-8.54-14.19,1.55-.56c1.25,2.18,1.82,2.8,4.87,1.69Zm3.14,6.52c.56-.21,1.39-.72,1.12-3.28-.21-2.11-.97-2.66-3.01-1.91-2.16.79-2.79,1.62-1.36,3.5,1.49,1.98,2.66,1.91,3.25,1.69Z"/>
    <path class="cls-2" d="m145.33,216.99c3.77-.91,5.39-.05,7.24,7.58,1.05,4.32.57,7.01-3.68,8.04-2.36.57-3.77.58-3.77.58l-1.3-5.37,3.67-.89c3.04-.74,3.48-1.56,2.73-4.67-.48-1.99-1.47-2.88-3.51-2.39-1.87.45-2.31,1.28-1.36,5.19l-2.84.69-1.78-7.34s2.09-.82,4.62-1.43Z"/>
    <path class="cls-2" d="m124.3,225.38c.87-.05,1.57-1.09,3.44-5.75l1.17-.06c2.22,4.39,2.59,5.19,3.53,5.14,1.2-.07,1.34-.62,1.07-5.72l1.67-.09.89,15.98-2.72.15c-3.63-7.76-4.9-8.6-5.67-8.55-.85.05-2.1.94-4.73,9.75l-1.35.07-.97-17.37,1.82-.1c.32,5.92.91,6.61,1.83,6.56Z"/>
    <path class="cls-2" d="m118.31,234.79l-8.45-.62.38-5.16c6.43.47,6.95.23,7.02-.69.08-1.02-.22-1.42-6.06-1.85l.12-1.62c5.36.39,5.86.13,5.94-.99.08-1.07-.42-1.46-6.73-1.92l.24-3.27,8.68.64-1.14,15.48Z"/>
    <path class="cls-2" d="m96.18,216.23l-5.12,15.13c-6.73-2.28-9.8-3.71-7.84-9.51,2.81-8.31,3.75-8.74,12.96-5.62Zm-7.73,8.42c2.42.82,3.11.18,4-2.47.95-2.82.72-3.53-1.18-4.17-3.69-1.25-4.5-.68-5.29,1.67-.95,2.82-.76,3.89,2.46,4.98Z"/>
    <path class="cls-2" d="m81.8,213.94c.79.38,1.16,0,2.4-2.6l1.38.66-6.98,14.67c-8.73-4.16-9.04-4.91-6.22-10.82,1.44-3.02,3.1-4.31,5.22-3.69l-1.49-5.42,3.61,1.72c.87,3.93,1.19,5.05,2.1,5.48Zm-5.32,5.66c2.66,1.27,3.31.44,3.97-.96.66-1.38.64-2.57-1.75-3.71s-3.5-.73-4.25.85c-.76,1.6-.65,2.54,2.03,3.82Z"/>
    <path class="cls-2" d="m69.82,207.63c2.29,1.42,2.95.98,4.28-.31l2.04,1.26-10.62,11.68-4.65-2.88,5.86-15.48,1.4.87c-.94,2.33-1.07,3.16,1.69,4.87Zm-3.18,6.5c.51.32,1.42.65,3.27-1.15,1.53-1.47,1.49-2.4-.36-3.55-1.95-1.21-3-1.18-3.59,1.1-.63,2.4.15,3.27.68,3.6Z"/>
    <path class="cls-2" d="m62.55,198.9c3.05,2.39,3.37,4.2-1.47,10.38-2.75,3.5-5.15,4.79-8.6,2.09-1.91-1.5-2.79-2.6-2.79-2.6l3.41-4.35,2.97,2.33c2.46,1.93,3.38,1.76,5.36-.75,1.27-1.61,1.35-2.94-.3-4.24-1.51-1.19-2.44-1.02-4.92,2.14l-2.3-1.8,4.66-5.94s1.94,1.14,3.98,2.74Z"/>
    <path class="cls-2" d="m42.92,187.6c.58.66,1.83.56,6.64-.86l.78.88c-2.06,4.46-2.47,5.25-1.84,5.96.79.9,1.32.67,5.15-2.71l1.11,1.25-11.98,10.62-1.8-2.04c3.84-7.66,3.7-9.18,3.19-9.76-.56-.64-2.04-1.07-10.58,2.34l-.89-1.01,13.02-11.54,1.21,1.37c-4.44,3.92-4.62,4.82-4.01,5.51Z"/>
    <path class="cls-2" d="m31.81,188.72l-4.74-7.02,4.29-2.9c3.61,5.35,4.12,5.61,4.88,5.09.85-.57.98-1.05-2.3-5.9l1.35-.91c3.01,4.46,3.52,4.68,4.46,4.05.89-.6.89-1.23-2.65-6.48l2.71-1.83,4.87,7.21-12.87,8.69Z"/>
    <path class="cls-2" d="m32.69,159.86l-15.05,5.34c-2.37-6.69-3.15-10,2.62-12.04,8.27-2.94,9.18-2.46,12.43,6.7Zm-11.4-.86c.85,2.4,1.78,2.55,4.42,1.61,2.8-.99,3.22-1.62,2.55-3.5-1.3-3.68-2.25-3.95-4.58-3.12-2.8,1-3.52,1.81-2.39,5.01Z"/>
    <path class="cls-2" d="m25.59,147.16c.19.85.72.91,3.52.28l.34,1.49-15.85,3.6c-2.14-9.44-1.74-10.14,4.65-11.59,3.27-.74,5.31-.23,6.13,1.81l3.33-4.53.89,3.9c-2.55,3.12-3.23,4.07-3.01,5.04Zm-7.74-.68c.65,2.88,1.7,2.87,3.21,2.53,1.49-.34,2.42-1.09,1.83-3.67-.59-2.58-1.6-3.2-3.31-2.81-1.73.39-2.4,1.06-1.74,3.96Z"/>
    <path class="cls-2" d="m23.13,133.84c.3,2.68,1.06,2.92,2.9,3.17l.27,2.38-15.75-1.11-.62-5.44,15.79-4.98.19,1.64c-2.41.7-3.15,1.11-2.78,4.34Zm-7.07,1.53c.07.6.37,1.52,2.93,1.86,2.1.29,2.81-.32,2.56-2.48-.26-2.29-.93-3.09-3.08-2.14-2.28.99-2.48,2.14-2.41,2.76Z"/>
    <path class="cls-2" d="m25.47,122.62c.06,3.87-1.14,5.27-8.99,5.4-4.45.07-6.97-.99-7.04-5.36-.04-2.42.26-3.8.26-3.8l5.52-.09.06,3.77c.05,3.12.76,3.74,3.96,3.69,2.05-.03,3.14-.8,3.1-2.9-.03-1.92-.74-2.54-4.77-2.47l-.05-2.92,7.55-.12s.34,2.22.38,4.82Z"/>
    <path class="cls-2" d="m22.17,100.31c-.16.86.7,1.78,4.79,4.68l-.21,1.16c-4.78,1.14-5.65,1.32-5.82,2.25-.21,1.18.3,1.45,5.31,2.36l-.3,1.65-15.75-2.82.48-2.68c8.39-1.74,9.49-2.78,9.63-3.54.15-.84-.43-2.26-8.39-6.85l.24-1.33,17.12,3.07-.32,1.8c-5.83-1.05-6.64-.64-6.8.27Z"/>
    <path class="cls-2" d="m14.4,92.28l2.58-8.07,4.93,1.58c-1.96,6.15-1.85,6.71-.97,6.99.98.31,1.43.12,3.21-5.46l1.55.5c-1.64,5.12-1.5,5.66-.42,6.01,1.02.33,1.52-.07,3.44-6.09l3.12,1-2.65,8.29-14.79-4.73Z"/>
    <path class="cls-2" d="m37.62,75.14l-13.51-8.51c3.78-6.01,5.9-8.66,11.08-5.4,7.42,4.68,7.62,5.68,2.43,13.91Zm-6.38-9.48c-1.36,2.16-.9,2.98,1.47,4.47,2.52,1.59,3.26,1.52,4.33-.17,2.08-3.3,1.71-4.21-.39-5.53-2.52-1.59-3.6-1.65-5.41,1.23Z"/>
    <path class="cls-2" d="m43.21,61.68c-.55.68-.27,1.13,1.97,2.94l-.96,1.19-12.65-10.21c6.08-7.53,6.88-7.65,11.98-3.54,2.61,2.1,3.47,4.02,2.38,5.93l5.62-.19-2.51,3.11c-4.03-.07-5.19-.01-5.82.76Zm-4.27-6.5c-1.85,2.3-1.2,3.11,0,4.09,1.19.96,2.35,1.22,4.02-.84,1.66-2.06,1.52-3.24.16-4.34-1.38-1.11-2.32-1.23-4.19,1.09Z"/>
    <path class="cls-2" d="m52.13,51.49c-1.92,1.9-1.63,2.65-.68,4.24l-1.7,1.69-8.91-13.04,3.88-3.86,13.71,9.29-1.17,1.16c-2.05-1.46-2.82-1.78-5.13.51Zm-5.59-4.6c-.43.42-.96,1.23.36,3.45,1.07,1.82,1.99,2,3.53.47,1.63-1.62,1.85-2.65-.24-3.75-2.19-1.17-3.22-.61-3.66-.17Z"/>
    <path class="cls-2" d="m62.31,46.43c-3.03,2.41-4.87,2.31-9.76-3.83-2.77-3.48-3.47-6.12-.05-8.85,1.9-1.51,3.18-2.11,3.18-2.11l3.44,4.32-2.95,2.35c-2.45,1.95-2.5,2.88-.5,5.39,1.28,1.6,2.55,2,4.19.69,1.51-1.2,1.56-2.14-.95-5.29l2.29-1.82,4.71,5.91s-1.55,1.62-3.59,3.24Z"/>
    <path class="cls-2" d="m77.84,29.96c-.77.41-.96,1.65-.7,6.66l-1.04.55c-3.86-3.04-4.53-3.62-5.37-3.17-1.06.56-.95,1.13,1.44,5.63l-1.48.79-7.54-14.11,2.4-1.28c6.56,5.51,8.06,5.73,8.75,5.37.75-.4,1.51-1.74.18-10.83l1.19-.63,8.2,15.35-1.61.86c-2.78-5.23-3.61-5.61-4.43-5.18Z"/>
    <path class="cls-2" d="m79.34,18.9l7.94-2.97,1.82,4.85c-6.04,2.26-6.41,2.7-6.09,3.56.36.96.8,1.2,6.27-.86l.57,1.52c-5.03,1.89-5.37,2.33-4.98,3.39.38,1.01.99,1.15,6.91-1.07l1.15,3.07-8.15,3.05-5.45-14.54Z"/>
    <path class="cls-2" d="m107.19,26.5l-1.69-15.88c7.06-.75,10.45-.73,11.1,5.36.93,8.72.25,9.5-9.41,10.53Zm3.5-10.88c-2.54.27-2.9,1.14-2.6,3.92.31,2.96.82,3.51,2.81,3.3,3.88-.41,4.36-1.27,4.1-3.73-.31-2.96-.94-3.85-4.32-3.49Z"/>
    <path class="cls-2" d="m121.2,22.54c-.87-.01-1.06.48-1.1,3.36l-1.52-.03.27-16.25c9.67.16,10.26.72,10.16,7.27-.06,3.35-1.04,5.21-3.22,5.52l3.6,4.31-4-.07c-2.42-3.21-3.18-4.1-4.18-4.12Zm2.5-7.36c-2.95-.05-3.19.97-3.22,2.52-.02,1.52.48,2.61,3.13,2.65,2.65.04,3.49-.79,3.52-2.54.03-1.77-.46-2.58-3.43-2.63Z"/>
    <path class="cls-2" d="m134.75,23.23c-2.68-.32-3.09.36-3.75,2.09l-2.38-.29,4.7-15.07,5.44.65,1.22,16.52-1.64-.2c-.13-2.51-.36-3.32-3.58-3.7Zm.14-7.24c-.6-.07-1.56.01-2.48,2.42-.77,1.97-.34,2.81,1.82,3.06,2.28.27,3.22-.19,2.79-2.51-.44-2.44-1.52-2.9-2.14-2.98Z"/>
    <path class="cls-2" d="m145.03,28.08c-3.77-.88-4.83-2.39-3.04-10.03,1.02-4.33,2.66-6.52,6.92-5.52,2.36.55,3.62,1.18,3.62,1.18l-1.26,5.38-3.67-.86c-3.04-.71-3.81-.17-4.54,2.94-.47,2,.01,3.24,2.05,3.72,1.87.44,2.64-.1,3.56-4.02l2.85.67-1.72,7.35s-2.23-.22-4.77-.81Z"/>
    <path class="cls-2" d="m167.57,30.09c-.8-.35-1.89.26-5.67,3.57l-1.08-.47c0-4.92.04-5.8-.83-6.18-1.1-.48-1.48-.05-3.54,4.62l-1.53-.67,6.42-14.66,2.5,1.1c-.27,8.57.49,9.89,1.2,10.2.78.34,2.3.11,8.62-6.56l1.24.54-6.99,15.94-1.67-.74c2.39-5.42,2.18-6.31,1.33-6.68Z"/>
    <path class="cls-2" d="m176.96,24.64l6.97,4.21-2.57,4.25c-5.3-3.2-5.85-3.22-6.31-2.46-.51.84-.43,1.31,4.38,4.22l-.81,1.34c-4.42-2.67-4.96-2.66-5.52-1.73-.53.88-.28,1.43,4.92,4.57l-1.62,2.69-7.15-4.32,7.7-12.76Z"/>
  </g>
  <circle class="cls-1" cx="122.57" cy="122.57" r="87.99"/>
  <circle class="cls-1" cx="122.57" cy="122.57" r="122.07"/>
</svg>