<?xml version="1.0" encoding="UTF-8"?>
<svg id="Layer_1" data-name="Layer 1" xmlns="http://www.w3.org/2000/svg" viewBox="0 0 300.05 299.97">
  <defs>
    <style>
      .cls-1 {
        stroke-width: 0px;
      }
    </style>
  </defs>
  <rect id="mide" class="cls-1" x="145.72" y="24.89" width="9" height="137.93" rx="4.5" ry="4.5"/>
  <path id="tip" class="cls-1" d="m194.59,244.82c-5,5-13.24,4.86-18.33-.04-6.81-6.56-16.06-10.59-26.26-10.59s-19.48,4.04-26.29,10.61c-4.75,4.58-12.07,4.91-17.09.86l29.13,29.13c7.97,7.97,21.1,8.09,29.07.12l29.76-30.09Z"/>
  <g id="extra">
    <path class="cls-1" d="m168.51,283.29c-4.92,4.92-11.59,7.68-18.55,7.68h20.98c-3.34-.71-5.03-5.09-2.43-7.68"/>
    <path class="cls-1" d="m132.11,283.94c1.93,2.61.44,6.37-2.67,7.03h20.53c-6.64,0-13.02-2.52-17.86-7.03Z"/>
  </g>
  <path id="v" class="cls-1" d="m168.51,283.29l122.54-122.54c2.89-2.88,5.13-6.27,6.66-9.97,1.53-3.69,2.34-7.68,2.34-11.76V4.59c0-1.86-1.08-3.55-2.69-4.29-.49-.19-1.02-.3-1.58-.3-2.49,0-4.5,2.01-4.5,4.5v130.91c0,8.15-3.24,15.96-9,21.73l-117.65,117.65c-7.97,7.97-20.9,7.97-28.87,0l-29.13-29.13c-.36-.29-.71-.6-1.04-.93L17.94,157.08c-5.76-5.76-9-13.57-9-21.72V4.64c0-1.86-1.08-3.54-2.68-4.28-.5-.19-1.03-.3-1.59-.3C2.18.06.16,2.07.16,4.56v134.64H.16c0,8.15,3.24,15.97,9,21.73l122.48,122.48c.17.17.32.35.46.54,4.84,4.51,11.22,7.03,17.86,7.03s13.63-2.76,18.55-7.68Z"/>
  <path id="i" class="cls-1" d="m299.97,295.47h0c0,2.49-2.01,4.5-4.5,4.5H4.5c-2.49,0-4.5-2.01-4.5-4.5h0c0-2.49,2.01-4.5,4.5-4.5h290.97c2.49,0,4.5,2.01,4.5,4.5Z"/>
</svg>