<?xml version="1.0" encoding="UTF-8"?>
<svg id="Layer_1" data-name="Layer 1" xmlns="http://www.w3.org/2000/svg" viewBox="0 0 300.11 300.09">
  <defs>
    <style>
      .cls-1 {
        fill: #000;
        stroke-width: 0px;
      }
    </style>
  </defs>
  <rect class="cls-1" x="145.56" y="29.06" width="9" height="137.93" rx="4.5" ry="4.5"/>
  <path class="cls-1" d="M193.3,258.68l97.81-97.81h0c5.76-5.76,9-13.58,9-21.73V4.69c0-2.35-1.72-4.45-4.06-4.67-2.68-.26-4.94,1.85-4.94,4.48v130.91c0,8.15-3.24,15.96-9,21.73l-72.87,72.87c-10.35,10.35-25.95,12.87-39.32,6.92-6.07-2.7-12.79-4.2-19.87-4.2s-13.81,1.5-19.89,4.21c-13.37,5.95-28.98,3.43-39.34-6.92L18,157.19c-5.76-5.76-9-13.58-9-21.73V4.75c0-2.35-1.72-4.45-4.06-4.67C2.26-.18,0,1.93,0,4.56v134.64h0c0,8.15,3.24,15.97,9,21.73l97.79,97.79,24.69,24.69c2.83,2.83.83,7.68-3.18,7.68H4.72c-2.35,0-4.45,1.72-4.67,4.06-.26,2.68,1.85,4.94,4.48,4.94h290.81c2.35,0,4.45-1.72,4.67-4.06.26-2.68-1.85-4.94-4.48-4.94h-123.77c-4.01,0-6.02-4.85-3.18-7.68l24.73-24.73Z"/>
</svg>